<?xml version="1.0" standalone="no"?>
<!DOCTYPE svg PUBLIC "-//W3C//DTD SVG 20010904//EN"
 "http://www.w3.org/TR/2001/REC-SVG-20010904/DTD/svg10.dtd">
<svg version="1.0" xmlns="http://www.w3.org/2000/svg"
 width="606.000000pt" height="606.000000pt" viewBox="0 0 606.000000 606.000000"
 preserveAspectRatio="xMidYMid meet">

<g transform="translate(0.000000,606.000000) scale(0.100000,-0.100000)"
fill="#000000" stroke="none">
<path d="M1360 3990 l0 -1220 405 0 405 0 0 820 0 820 778 0 779 0 44 -23 c80
-43 122 -164 85 -250 -17 -41 -62 -81 -105 -96 -24 -8 -207 -11 -613 -11
l-580 0 4 -332 c4 -323 5 -337 32 -452 37 -157 75 -264 146 -414 320 -666 960
-1054 1798 -1089 l152 -6 0 410 0 410 -173 6 c-97 3 -202 13 -242 22 -235 52
-423 153 -576 307 -102 103 -209 272 -209 329 0 18 12 19 258 19 297 0 370 12
501 80 159 83 270 198 351 365 82 169 85 185 85 535 0 357 -7 402 -86 559
-105 210 -309 368 -538 417 -55 11 -290 14 -1383 14 l-1318 0 0 -1220z"/>
<path d="M1443 1269 c-78 -38 -94 -131 -32 -183 30 -26 55 -34 164 -58 53 -11
60 -16 63 -39 4 -31 -29 -49 -89 -49 -32 0 -47 7 -71 30 -24 25 -38 30 -75 30
l-45 0 6 -32 c17 -83 66 -112 191 -113 77 0 96 4 131 24 48 27 64 55 64 112 0
62 -37 93 -136 114 -113 24 -129 30 -132 49 -6 31 17 46 74 46 48 0 56 -3 76
-30 18 -25 29 -30 65 -30 39 0 43 2 43 25 0 42 -28 83 -70 105 -55 28 -169 28
-227 -1z"/>
<path d="M4365 1272 c-126 -59 -164 -224 -78 -340 75 -101 261 -107 347 -12
46 52 58 81 59 152 0 74 -33 142 -92 183 -37 26 -53 30 -119 33 -59 2 -87 -2
-117 -16z m172 -97 c51 -34 65 -122 27 -180 -34 -53 -125 -61 -175 -17 -25 23
-33 38 -36 78 -6 63 13 104 59 128 38 19 87 15 125 -9z"/>
<path d="M1960 1235 l0 -45 75 0 75 0 2 -162 3 -163 53 -3 52 -3 0 165 0 166
75 0 75 0 0 45 0 45 -205 0 -205 0 0 -45z"/>
<path d="M2610 1132 c0 -134 2 -152 23 -192 51 -100 228 -121 322 -39 46 41
55 79 55 242 l0 137 -55 0 -55 0 0 -139 c0 -125 -2 -141 -21 -165 -17 -22 -28
-26 -69 -26 -41 0 -52 4 -69 26 -19 24 -21 40 -21 165 l0 139 -55 0 -55 0 0
-148z"/>
<path d="M3250 1070 l0 -213 133 5 c173 7 224 30 262 121 41 98 6 221 -76 267
-40 23 -57 25 -181 28 l-138 4 0 -212z m232 109 c46 -12 68 -49 68 -114 0 -38
-5 -52 -29 -76 -27 -26 -36 -29 -95 -29 l-66 0 0 115 0 115 43 0 c23 0 59 -5
79 -11z"/>
<path d="M3900 1069 l0 -210 53 3 52 3 3 208 2 207 -55 0 -55 0 0 -211z"/>
</g>
</svg>
